<svg width="17" height="17" viewBox="0 0 17 17" fill="none" xmlns="http://www.w3.org/2000/svg">
<path fill-rule="evenodd" clip-rule="evenodd" d="M8.73265 3.81693C8.98921 3.56037 9.40516 3.56037 9.66172 3.81693L13.6034 7.75861C13.7266 7.88181 13.7958 8.0489 13.7958 8.22314C13.7958 8.39737 13.7266 8.56447 13.6034 8.68767L9.66172 12.6293C9.40516 12.8859 8.98921 12.8859 8.73265 12.6293C8.4761 12.3728 8.4761 11.9568 8.73265 11.7003L11.5529 8.88008L3.94161 8.88008C3.57879 8.88008 3.28467 8.58596 3.28467 8.22314C3.28467 7.86032 3.57879 7.56619 3.94161 7.56619L11.5529 7.56619L8.73265 4.74599C8.4761 4.48944 8.4761 4.07348 8.73265 3.81693Z" fill="#2D2D2D"/>
</svg>
