<svg width="17" height="16" viewBox="0 0 17 16" fill="none" xmlns="http://www.w3.org/2000/svg">
<path d="M9.0681 15.5568L15.2023 8.55255C15.9981 7.63379 16.4424 6.39779 16.4393 5.11156C16.4362 3.82532 15.9858 2.59211 15.1856 1.6783C14.793 1.22534 14.3248 0.865209 13.808 0.618847C13.2913 0.372485 12.7364 0.244815 12.1756 0.243264C11.6148 0.241713 11.0594 0.366312 10.5416 0.609813C10.0238 0.853314 9.55397 1.21086 9.15945 1.66164L8.57402 2.33162L7.97976 1.65386C7.58773 1.2015 7.1201 0.84182 6.60407 0.595734C6.08804 0.349648 5.53391 0.222068 4.9739 0.220414C4.41388 0.21876 3.85917 0.343064 3.34201 0.586098C2.82485 0.829132 2.35557 1.18605 1.96146 1.63608C0.303408 3.53047 0.311266 6.60927 1.97718 8.51255L8.14281 15.5568C8.3982 15.849 8.81271 15.849 9.0681 15.5568ZM9.85783 2.44273C10.1611 2.09649 10.5222 1.82198 10.9202 1.63517C11.3181 1.44837 11.745 1.35302 12.1758 1.35468C12.6067 1.35633 13.0329 1.45496 13.4298 1.64481C13.8266 1.83466 14.1861 2.11195 14.4872 2.4605C15.1053 3.16642 15.4533 4.11883 15.4562 5.11234C15.4592 6.10586 15.1168 7.06088 14.5029 7.77146V7.77369L8.60546 14.5068L2.67458 7.73035C1.38487 6.25706 1.38389 3.87491 2.65985 2.41717C2.96269 2.07157 3.3233 1.79758 3.72066 1.61114C4.11802 1.42469 4.5442 1.32953 4.97439 1.33118C5.40458 1.33284 5.83018 1.43128 6.22641 1.62077C6.62264 1.81027 6.98159 2.08703 7.28235 2.43495L8.22532 3.5127C8.271 3.56493 8.32538 3.6064 8.38532 3.63471C8.44526 3.66301 8.50956 3.67758 8.57451 3.67758C8.63947 3.67758 8.70377 3.66301 8.76371 3.63471C8.82365 3.6064 8.87803 3.56493 8.92371 3.5127L9.85783 2.44273Z" fill="black"/>
</svg>
