<svg width="449" height="144" viewBox="0 0 449 144" fill="none" xmlns="http://www.w3.org/2000/svg">
<path d="M0 140C1.6 139.333 3 138.667 4.2 138C5.53333 137.333 6.6 136.333 7.4 135C8.33333 133.667 9.13333 131.867 9.8 129.6C10.6 127.333 11.2667 124.333 11.8 120.6L28.2 15.8C28.6 12.7333 28 10.2667 26.4 8.39999C24.8 6.53333 23.0667 5.39999 21.2 4.99999V1.99999H46.8L67 120.6C67.8 124.067 68.5333 126.933 69.2 129.2C69.8667 131.467 70.5333 133.333 71.2 134.8C71.8667 136.133 72.6 137.2 73.4 138C74.2 138.8 75.2667 139.467 76.6 140V142H43.8V140C44.2 139.467 44.7333 138.867 45.4 138.2C46.0667 137.533 46.6 136.667 47 135.6C47.5333 134.4 47.8667 133 48 131.4C48.2667 129.8 48.0667 127.8 47.4 125.4L41.8 92H22.4L17 125.8C16.4667 128.733 16.4 131.067 16.8 132.8C17.3333 134.533 18.0667 135.867 19 136.8C19.9333 137.6 20.9333 138.267 22 138.8C23.2 139.2 24.2 139.6 25 140V142H0V140ZM40.8 86L32.2 35.4H31.4L23.4 86H40.8ZM118.57 56.2H119.37L135.97 18.4C137.304 15.2 138.037 12.7333 138.17 11C138.437 9.26666 138.304 7.99999 137.77 7.2C137.237 6.26666 136.504 5.59999 135.57 5.2C134.77 4.79999 133.97 4.39999 133.17 3.99999V1.99999H156.37V3.99999C154.77 4.66665 153.304 5.39999 151.97 6.2C150.637 6.99999 149.37 8.13332 148.17 9.59999C146.97 10.9333 145.704 12.7333 144.37 15C143.17 17.1333 141.77 20 140.17 23.6L127.57 53C128.504 56.2 130.17 58.8 132.57 60.8C135.104 62.8 139.17 63.8 144.77 63.8L156.97 120.6C157.77 124.067 158.504 126.933 159.17 129.2C159.837 131.467 160.504 133.333 161.17 134.8C161.837 136.133 162.57 137.2 163.37 138C164.17 138.8 165.237 139.467 166.57 140V142H133.77V140C135.237 139.333 136.504 137.933 137.57 135.8C138.637 133.533 138.57 130.067 137.37 125.4L123.97 64H122.77L118.57 73.6V125.8C118.57 129.667 119.037 132.733 119.97 135C120.904 137.267 121.77 138.933 122.57 140V142H94.5703V140C95.3703 138.933 96.237 137.267 97.1703 135C98.1036 132.733 98.5703 129.667 98.5703 125.8V18.2C98.5703 14.3333 98.1036 11.2667 97.1703 9C96.237 6.73333 95.3703 5.06666 94.5703 3.99999V1.99999H122.57V3.99999C121.77 5.06666 120.904 6.73333 119.97 9C119.037 11.2667 118.57 14.3333 118.57 18.2V56.2ZM180.547 72C180.547 62.4 181.28 53.2667 182.747 44.6C184.347 35.8 186.747 28.1333 189.947 21.6C193.28 14.9333 197.48 9.66666 202.547 5.79999C207.614 1.93332 213.614 -7.62939e-06 220.547 -7.62939e-06C227.614 -7.62939e-06 233.614 1.93332 238.547 5.79999C243.614 9.66666 247.747 14.9333 250.947 21.6C254.28 28.1333 256.68 35.8 258.147 44.6C259.747 53.2667 260.547 62.4 260.547 72C260.547 81.6 259.747 90.8 258.147 99.6C256.68 108.267 254.28 115.933 250.947 122.6C247.747 129.133 243.614 134.333 238.547 138.2C233.614 142.067 227.614 144 220.547 144C213.614 144 207.614 142.067 202.547 138.2C197.48 134.333 193.28 129.133 189.947 122.6C186.747 115.933 184.347 108.267 182.747 99.6C181.28 90.8 180.547 81.6 180.547 72ZM202.547 72C202.547 81.0667 202.68 89.6 202.947 97.6C203.214 105.6 203.947 112.6 205.147 118.6C206.347 124.6 208.147 129.333 210.547 132.8C212.947 136.267 216.28 138 220.547 138C224.814 138 228.147 136.267 230.547 132.8C232.947 129.333 234.747 124.6 235.947 118.6C237.147 112.6 237.88 105.6 238.147 97.6C238.414 89.6 238.547 81.0667 238.547 72C238.547 62.9333 238.414 54.4 238.147 46.4C237.88 38.4 237.147 31.4 235.947 25.4C234.747 19.4 232.947 14.6667 230.547 11.2C228.147 7.73333 224.814 6 220.547 6C216.28 6 212.947 7.73333 210.547 11.2C208.147 14.6667 206.347 19.4 205.147 25.4C203.947 31.4 203.214 38.4 202.947 46.4C202.68 54.4 202.547 62.9333 202.547 72ZM306.539 56.2H307.339L323.939 18.4C325.272 15.2 326.006 12.7333 326.139 11C326.406 9.26666 326.272 7.99999 325.739 7.2C325.206 6.26666 324.472 5.59999 323.539 5.2C322.739 4.79999 321.939 4.39999 321.139 3.99999V1.99999H344.339V3.99999C342.739 4.66665 341.272 5.39999 339.939 6.2C338.606 6.99999 337.339 8.13332 336.139 9.59999C334.939 10.9333 333.672 12.7333 332.339 15C331.139 17.1333 329.739 20 328.139 23.6L315.539 53C316.472 56.2 318.139 58.8 320.539 60.8C323.072 62.8 327.139 63.8 332.739 63.8L344.939 120.6C345.739 124.067 346.472 126.933 347.139 129.2C347.806 131.467 348.472 133.333 349.139 134.8C349.806 136.133 350.539 137.2 351.339 138C352.139 138.8 353.206 139.467 354.539 140V142H321.739V140C323.206 139.333 324.472 137.933 325.539 135.8C326.606 133.533 326.539 130.067 325.339 125.4L311.939 64H310.739L306.539 73.6V125.8C306.539 129.667 307.006 132.733 307.939 135C308.872 137.267 309.739 138.933 310.539 140V142H282.539V140C283.339 138.933 284.206 137.267 285.139 135C286.072 132.733 286.539 129.667 286.539 125.8V18.2C286.539 14.3333 286.072 11.2667 285.139 9C284.206 6.73333 283.339 5.06666 282.539 3.99999V1.99999H310.539V3.99999C309.739 5.06666 308.872 6.73333 307.939 9C307.006 11.2667 306.539 14.3333 306.539 18.2V56.2ZM368.516 72C368.516 62.4 369.249 53.2667 370.716 44.6C372.316 35.8 374.716 28.1333 377.916 21.6C381.249 14.9333 385.449 9.66666 390.516 5.79999C395.582 1.93332 401.582 -7.62939e-06 408.516 -7.62939e-06C415.582 -7.62939e-06 421.582 1.93332 426.516 5.79999C431.582 9.66666 435.716 14.9333 438.916 21.6C442.249 28.1333 444.649 35.8 446.116 44.6C447.716 53.2667 448.516 62.4 448.516 72C448.516 81.6 447.716 90.8 446.116 99.6C444.649 108.267 442.249 115.933 438.916 122.6C435.716 129.133 431.582 134.333 426.516 138.2C421.582 142.067 415.582 144 408.516 144C401.582 144 395.582 142.067 390.516 138.2C385.449 134.333 381.249 129.133 377.916 122.6C374.716 115.933 372.316 108.267 370.716 99.6C369.249 90.8 368.516 81.6 368.516 72ZM390.516 72C390.516 81.0667 390.649 89.6 390.916 97.6C391.182 105.6 391.916 112.6 393.116 118.6C394.316 124.6 396.116 129.333 398.516 132.8C400.916 136.267 404.249 138 408.516 138C412.782 138 416.116 136.267 418.516 132.8C420.916 129.333 422.716 124.6 423.916 118.6C425.116 112.6 425.849 105.6 426.116 97.6C426.382 89.6 426.516 81.0667 426.516 72C426.516 62.9333 426.382 54.4 426.116 46.4C425.849 38.4 425.116 31.4 423.916 25.4C422.716 19.4 420.916 14.6667 418.516 11.2C416.116 7.73333 412.782 6 408.516 6C404.249 6 400.916 7.73333 398.516 11.2C396.116 14.6667 394.316 19.4 393.116 25.4C391.916 31.4 391.182 38.4 390.916 46.4C390.649 54.4 390.516 62.9333 390.516 72Z" fill="white"/>
</svg>