<svg width="221" height="72" viewBox="0 0 221 72" fill="none" xmlns="http://www.w3.org/2000/svg">
<path d="M0 70C0.8 69.6667 1.5 69.3333 2.1 69C2.76667 68.6667 3.3 68.1667 3.7 67.5C4.16667 66.8333 4.56667 65.9333 4.9 64.8C5.3 63.6667 5.63333 62.1667 5.9 60.3L14.1 7.9C14.3 6.36666 14 5.13333 13.2 4.2C12.4 3.26666 11.5333 2.7 10.6 2.49999V0.999995H23.4L33.5 60.3C33.9 62.0333 34.2667 63.4667 34.6 64.6C34.9333 65.7333 35.2667 66.6667 35.6 67.4C35.9333 68.0667 36.3 68.6 36.7 69C37.1 69.4 37.6333 69.7333 38.3 70V71H21.9V70C22.1 69.7333 22.3667 69.4333 22.7 69.1C23.0333 68.7667 23.3 68.3333 23.5 67.8C23.7667 67.2 23.9333 66.5 24 65.7C24.1333 64.9 24.0333 63.9 23.7 62.7L20.9 46H11.2L8.5 62.9C8.23333 64.3667 8.2 65.5333 8.4 66.4C8.66667 67.2667 9.03333 67.9333 9.5 68.4C9.96667 68.8 10.4667 69.1333 11 69.4C11.6 69.6 12.1 69.8 12.5 70V71H0V70ZM20.4 43L16.1 17.7H15.7L11.7 43H20.4ZM58.2852 28.1H58.6852L66.9852 9.2C67.6518 7.6 68.0185 6.36666 68.0852 5.5C68.2185 4.63333 68.1518 4 67.8852 3.6C67.6185 3.13333 67.2518 2.8 66.7852 2.6C66.3852 2.4 65.9852 2.2 65.5852 1.99999V0.999995H77.1852V1.99999C76.3852 2.33333 75.6518 2.7 74.9852 3.1C74.3185 3.5 73.6852 4.06666 73.0852 4.79999C72.4852 5.46666 71.8518 6.36666 71.1852 7.49999C70.5852 8.56666 69.8852 10 69.0852 11.8L62.7852 26.5C63.2518 28.1 64.0852 29.4 65.2852 30.4C66.5518 31.4 68.5852 31.9 71.3852 31.9L77.4852 60.3C77.8852 62.0333 78.2518 63.4667 78.5852 64.6C78.9185 65.7333 79.2518 66.6667 79.5852 67.4C79.9185 68.0667 80.2852 68.6 80.6852 69C81.0852 69.4 81.6185 69.7333 82.2852 70V71H65.8852V70C66.6185 69.6667 67.2518 68.9667 67.7852 67.9C68.3185 66.7667 68.2852 65.0333 67.6852 62.7L60.9852 32H60.3852L58.2852 36.8V62.9C58.2852 64.8333 58.5185 66.3667 58.9852 67.5C59.4518 68.6333 59.8852 69.4667 60.2852 70V71H46.2852V70C46.6852 69.4667 47.1185 68.6333 47.5852 67.5C48.0518 66.3667 48.2852 64.8333 48.2852 62.9V9.1C48.2852 7.16667 48.0518 5.63333 47.5852 4.5C47.1185 3.36666 46.6852 2.53333 46.2852 1.99999V0.999995H60.2852V1.99999C59.8852 2.53333 59.4518 3.36666 58.9852 4.5C58.5185 5.63333 58.2852 7.16667 58.2852 9.1V28.1ZM88.2734 36C88.2734 31.2 88.6401 26.6333 89.3734 22.3C90.1734 17.9 91.3734 14.0667 92.9734 10.8C94.6401 7.46666 96.7401 4.83333 99.2734 2.89999C101.807 0.966662 104.807 -3.8147e-06 108.273 -3.8147e-06C111.807 -3.8147e-06 114.807 0.966662 117.273 2.89999C119.807 4.83333 121.873 7.46666 123.473 10.8C125.14 14.0667 126.34 17.9 127.073 22.3C127.873 26.6333 128.273 31.2 128.273 36C128.273 40.8 127.873 45.4 127.073 49.8C126.34 54.1333 125.14 57.9667 123.473 61.3C121.873 64.5667 119.807 67.1667 117.273 69.1C114.807 71.0333 111.807 72 108.273 72C104.807 72 101.807 71.0333 99.2734 69.1C96.7401 67.1667 94.6401 64.5667 92.9734 61.3C91.3734 57.9667 90.1734 54.1333 89.3734 49.8C88.6401 45.4 88.2734 40.8 88.2734 36ZM99.2734 36C99.2734 40.5333 99.3401 44.8 99.4734 48.8C99.6068 52.8 99.9734 56.3 100.573 59.3C101.173 62.3 102.073 64.6667 103.273 66.4C104.473 68.1333 106.14 69 108.273 69C110.407 69 112.073 68.1333 113.273 66.4C114.473 64.6667 115.373 62.3 115.973 59.3C116.573 56.3 116.94 52.8 117.073 48.8C117.207 44.8 117.273 40.5333 117.273 36C117.273 31.4667 117.207 27.2 117.073 23.2C116.94 19.2 116.573 15.7 115.973 12.7C115.373 9.7 114.473 7.33333 113.273 5.6C112.073 3.86666 110.407 3 108.273 3C106.14 3 104.473 3.86666 103.273 5.6C102.073 7.33333 101.173 9.7 100.573 12.7C99.9734 15.7 99.6068 19.2 99.4734 23.2C99.3401 27.2 99.2734 31.4667 99.2734 36ZM150.27 28.1H150.67L158.97 9.2C159.636 7.6 160.003 6.36666 160.07 5.5C160.203 4.63333 160.136 4 159.87 3.6C159.603 3.13333 159.236 2.8 158.77 2.6C158.37 2.4 157.97 2.2 157.57 1.99999V0.999995H169.17V1.99999C168.37 2.33333 167.636 2.7 166.97 3.1C166.303 3.5 165.67 4.06666 165.07 4.79999C164.47 5.46666 163.836 6.36666 163.17 7.49999C162.57 8.56666 161.87 10 161.07 11.8L154.77 26.5C155.236 28.1 156.07 29.4 157.27 30.4C158.536 31.4 160.57 31.9 163.37 31.9L169.47 60.3C169.87 62.0333 170.236 63.4667 170.57 64.6C170.903 65.7333 171.236 66.6667 171.57 67.4C171.903 68.0667 172.27 68.6 172.67 69C173.07 69.4 173.603 69.7333 174.27 70V71H157.87V70C158.603 69.6667 159.236 68.9667 159.77 67.9C160.303 66.7667 160.27 65.0333 159.67 62.7L152.97 32H152.37L150.27 36.8V62.9C150.27 64.8333 150.503 66.3667 150.97 67.5C151.436 68.6333 151.87 69.4667 152.27 70V71H138.27V70C138.67 69.4667 139.103 68.6333 139.57 67.5C140.036 66.3667 140.27 64.8333 140.27 62.9V9.1C140.27 7.16667 140.036 5.63333 139.57 4.5C139.103 3.36666 138.67 2.53333 138.27 1.99999V0.999995H152.27V1.99999C151.87 2.53333 151.436 3.36666 150.97 4.5C150.503 5.63333 150.27 7.16667 150.27 9.1V28.1ZM180.258 36C180.258 31.2 180.624 26.6333 181.358 22.3C182.158 17.9 183.358 14.0667 184.958 10.8C186.624 7.46666 188.724 4.83333 191.258 2.89999C193.791 0.966662 196.791 -3.8147e-06 200.258 -3.8147e-06C203.791 -3.8147e-06 206.791 0.966662 209.258 2.89999C211.791 4.83333 213.858 7.46666 215.458 10.8C217.124 14.0667 218.324 17.9 219.058 22.3C219.858 26.6333 220.258 31.2 220.258 36C220.258 40.8 219.858 45.4 219.058 49.8C218.324 54.1333 217.124 57.9667 215.458 61.3C213.858 64.5667 211.791 67.1667 209.258 69.1C206.791 71.0333 203.791 72 200.258 72C196.791 72 193.791 71.0333 191.258 69.1C188.724 67.1667 186.624 64.5667 184.958 61.3C183.358 57.9667 182.158 54.1333 181.358 49.8C180.624 45.4 180.258 40.8 180.258 36ZM191.258 36C191.258 40.5333 191.324 44.8 191.458 48.8C191.591 52.8 191.958 56.3 192.558 59.3C193.158 62.3 194.058 64.6667 195.258 66.4C196.458 68.1333 198.124 69 200.258 69C202.391 69 204.058 68.1333 205.258 66.4C206.458 64.6667 207.358 62.3 207.958 59.3C208.558 56.3 208.924 52.8 209.058 48.8C209.191 44.8 209.258 40.5333 209.258 36C209.258 31.4667 209.191 27.2 209.058 23.2C208.924 19.2 208.558 15.7 207.958 12.7C207.358 9.7 206.458 7.33333 205.258 5.6C204.058 3.86666 202.391 3 200.258 3C198.124 3 196.458 3.86666 195.258 5.6C194.058 7.33333 193.158 9.7 192.558 12.7C191.958 15.7 191.591 19.2 191.458 23.2C191.324 27.2 191.258 31.4667 191.258 36Z" fill="black"/>
</svg>
